<mxfile host="app.diagrams.net" modified="2024-04-25T01:56:06.510Z" agent="Mozilla/5.0 (Windows NT 10.0; Win64; x64) AppleWebKit/537.36 (KHTML, like Gecko) Chrome/116.0.0.0 Safari/537.36" etag="ySmxv-3gAbhtci6HM7IQ" version="24.3.0" type="device">
  <diagram name="Page-1" id="-BxXAOziNJsNvNlKN5Kr">
    <mxGraphModel dx="794" dy="510" grid="1" gridSize="10" guides="1" tooltips="1" connect="1" arrows="1" fold="1" page="1" pageScale="1" pageWidth="827" pageHeight="1169" math="0" shadow="0">
      <root>
        <mxCell id="0" />
        <mxCell id="1" parent="0" />
        <mxCell id="8Kzg3xWZDTRwA0DRGUe8-1" value="" style="ellipse;html=1;shape=startState;fillColor=#000000;strokeColor=#ff0000;" vertex="1" parent="1">
          <mxGeometry x="90" y="40" width="30" height="30" as="geometry" />
        </mxCell>
        <mxCell id="8Kzg3xWZDTRwA0DRGUe8-2" value="" style="edgeStyle=orthogonalEdgeStyle;html=1;verticalAlign=bottom;endArrow=open;endSize=8;strokeColor=#ff0000;rounded=0;" edge="1" source="8Kzg3xWZDTRwA0DRGUe8-1" parent="1">
          <mxGeometry relative="1" as="geometry">
            <mxPoint x="105" y="320" as="targetPoint" />
          </mxGeometry>
        </mxCell>
        <mxCell id="8Kzg3xWZDTRwA0DRGUe8-3" value="&lt;font style=&quot;font-size: 24px;&quot;&gt;&lt;b&gt;Activity Diagram: a business process model of involuntary detention&lt;/b&gt;&lt;/font&gt;" style="text;html=1;align=center;verticalAlign=middle;whiteSpace=wrap;rounded=0;" vertex="1" parent="1">
          <mxGeometry x="560" y="60" width="710" height="30" as="geometry" />
        </mxCell>
        <mxCell id="8Kzg3xWZDTRwA0DRGUe8-4" value="&lt;font style=&quot;font-size: 20px;&quot;&gt;Confirm&lt;/font&gt;&lt;div style=&quot;font-size: 20px;&quot;&gt;&lt;font style=&quot;font-size: 20px;&quot;&gt;detention&lt;/font&gt;&lt;/div&gt;&lt;div style=&quot;font-size: 20px;&quot;&gt;&lt;font style=&quot;font-size: 20px;&quot;&gt;decision&lt;/font&gt;&lt;/div&gt;" style="rounded=1;whiteSpace=wrap;html=1;" vertex="1" parent="1">
          <mxGeometry x="45" y="140" width="120" height="110" as="geometry" />
        </mxCell>
        <mxCell id="8Kzg3xWZDTRwA0DRGUe8-7" value="" style="html=1;points=[];perimeter=orthogonalPerimeter;fillColor=strokeColor;rotation=-90;" vertex="1" parent="1">
          <mxGeometry x="100" y="280" width="5" height="80" as="geometry" />
        </mxCell>
        <mxCell id="8Kzg3xWZDTRwA0DRGUe8-8" value="&lt;span style=&quot;font-size: 20px;&quot;&gt;Inform&lt;/span&gt;&lt;div&gt;&lt;span style=&quot;font-size: 20px;&quot;&gt;patient of&amp;nbsp;&lt;/span&gt;&lt;/div&gt;&lt;div&gt;&lt;span style=&quot;font-size: 20px;&quot;&gt;rights&lt;/span&gt;&lt;/div&gt;" style="rounded=1;whiteSpace=wrap;html=1;" vertex="1" parent="1">
          <mxGeometry x="240" y="310" width="120" height="110" as="geometry" />
        </mxCell>
        <mxCell id="8Kzg3xWZDTRwA0DRGUe8-9" value="&lt;span style=&quot;font-size: 20px;&quot;&gt;Record&lt;/span&gt;&lt;div&gt;&lt;span style=&quot;font-size: 20px;&quot;&gt;detention&lt;/span&gt;&lt;/div&gt;&lt;div&gt;&lt;span style=&quot;font-size: 20px;&quot;&gt;decision&lt;/span&gt;&lt;/div&gt;" style="rounded=1;whiteSpace=wrap;html=1;" vertex="1" parent="1">
          <mxGeometry x="240" y="475" width="120" height="110" as="geometry" />
        </mxCell>
        <mxCell id="8Kzg3xWZDTRwA0DRGUe8-10" value="" style="endArrow=classic;html=1;rounded=0;entryX=0;entryY=0.5;entryDx=0;entryDy=0;exitX=0.1;exitY=0.681;exitDx=0;exitDy=0;exitPerimeter=0;edgeStyle=orthogonalEdgeStyle;" edge="1" parent="1" source="8Kzg3xWZDTRwA0DRGUe8-7" target="8Kzg3xWZDTRwA0DRGUe8-8">
          <mxGeometry width="50" height="50" relative="1" as="geometry">
            <mxPoint x="130" y="330" as="sourcePoint" />
            <mxPoint x="180" y="370" as="targetPoint" />
          </mxGeometry>
        </mxCell>
        <mxCell id="8Kzg3xWZDTRwA0DRGUe8-11" value="" style="endArrow=classic;html=1;rounded=0;exitX=0.1;exitY=0.169;exitDx=0;exitDy=0;exitPerimeter=0;entryX=-0.033;entryY=0.618;entryDx=0;entryDy=0;entryPerimeter=0;edgeStyle=orthogonalEdgeStyle;" edge="1" parent="1" source="8Kzg3xWZDTRwA0DRGUe8-7" target="8Kzg3xWZDTRwA0DRGUe8-9">
          <mxGeometry width="50" height="50" relative="1" as="geometry">
            <mxPoint x="120" y="520" as="sourcePoint" />
            <mxPoint x="170" y="470" as="targetPoint" />
            <Array as="points">
              <mxPoint x="76" y="543" />
            </Array>
          </mxGeometry>
        </mxCell>
        <mxCell id="8Kzg3xWZDTRwA0DRGUe8-12" value="&lt;font style=&quot;font-size: 20px;&quot;&gt;«System»&lt;br&gt;&lt;b&gt;Mentcare&lt;/b&gt;&lt;/font&gt;" style="html=1;whiteSpace=wrap;" vertex="1" parent="1">
          <mxGeometry x="225" y="700" width="150" height="80" as="geometry" />
        </mxCell>
        <mxCell id="8Kzg3xWZDTRwA0DRGUe8-13" value="" style="endArrow=classic;html=1;rounded=0;exitX=0.5;exitY=0;exitDx=0;exitDy=0;entryX=0.5;entryY=1;entryDx=0;entryDy=0;" edge="1" parent="1" source="8Kzg3xWZDTRwA0DRGUe8-12" target="8Kzg3xWZDTRwA0DRGUe8-9">
          <mxGeometry width="50" height="50" relative="1" as="geometry">
            <mxPoint x="430" y="640" as="sourcePoint" />
            <mxPoint x="480" y="590" as="targetPoint" />
          </mxGeometry>
        </mxCell>
        <mxCell id="8Kzg3xWZDTRwA0DRGUe8-14" value="" style="html=1;points=[];perimeter=orthogonalPerimeter;fillColor=strokeColor;rotation=0;" vertex="1" parent="1">
          <mxGeometry x="440" y="360" width="5" height="190" as="geometry" />
        </mxCell>
        <mxCell id="8Kzg3xWZDTRwA0DRGUe8-15" value="" style="rhombus;" vertex="1" parent="1">
          <mxGeometry x="530" y="431.5" width="30" height="30" as="geometry" />
        </mxCell>
        <mxCell id="8Kzg3xWZDTRwA0DRGUe8-16" value="" style="endArrow=none;html=1;rounded=0;exitX=0.6;exitY=0.458;exitDx=0;exitDy=0;exitPerimeter=0;" edge="1" parent="1" source="8Kzg3xWZDTRwA0DRGUe8-14" target="8Kzg3xWZDTRwA0DRGUe8-15">
          <mxGeometry width="50" height="50" relative="1" as="geometry">
            <mxPoint x="450" y="450" as="sourcePoint" />
            <mxPoint x="490" y="410" as="targetPoint" />
          </mxGeometry>
        </mxCell>
        <mxCell id="8Kzg3xWZDTRwA0DRGUe8-17" value="" style="endArrow=classic;html=1;rounded=0;entryX=1;entryY=0.111;entryDx=0;entryDy=0;entryPerimeter=0;" edge="1" parent="1">
          <mxGeometry width="50" height="50" relative="1" as="geometry">
            <mxPoint x="356" y="380" as="sourcePoint" />
            <mxPoint x="441" y="381.09000000000015" as="targetPoint" />
          </mxGeometry>
        </mxCell>
        <mxCell id="8Kzg3xWZDTRwA0DRGUe8-18" value="" style="endArrow=classic;html=1;rounded=0;entryX=-0.6;entryY=0.947;entryDx=0;entryDy=0;entryPerimeter=0;" edge="1" parent="1">
          <mxGeometry width="50" height="50" relative="1" as="geometry">
            <mxPoint x="364" y="540" as="sourcePoint" />
            <mxPoint x="441" y="539.9299999999998" as="targetPoint" />
          </mxGeometry>
        </mxCell>
        <mxCell id="8Kzg3xWZDTRwA0DRGUe8-19" value="&lt;font style=&quot;font-size: 20px;&quot;&gt;Find secure&lt;/font&gt;&lt;div style=&quot;font-size: 20px;&quot;&gt;&lt;font style=&quot;font-size: 20px;&quot;&gt;place&lt;/font&gt;&lt;/div&gt;" style="rounded=1;whiteSpace=wrap;html=1;" vertex="1" parent="1">
          <mxGeometry x="485" y="240" width="120" height="60" as="geometry" />
        </mxCell>
        <mxCell id="8Kzg3xWZDTRwA0DRGUe8-20" value="" style="endArrow=classic;html=1;rounded=0;exitX=0.5;exitY=0;exitDx=0;exitDy=0;" edge="1" parent="1" source="8Kzg3xWZDTRwA0DRGUe8-15">
          <mxGeometry width="50" height="50" relative="1" as="geometry">
            <mxPoint x="540" y="430" as="sourcePoint" />
            <mxPoint x="545" y="300" as="targetPoint" />
          </mxGeometry>
        </mxCell>
        <mxCell id="8Kzg3xWZDTRwA0DRGUe8-21" value="&lt;font style=&quot;font-size: 19px;&quot;&gt;[dangerous]&lt;/font&gt;" style="text;html=1;align=center;verticalAlign=middle;whiteSpace=wrap;rounded=0;" vertex="1" parent="1">
          <mxGeometry x="460" y="310" width="60" height="30" as="geometry" />
        </mxCell>
        <mxCell id="8Kzg3xWZDTRwA0DRGUe8-22" value="" style="endArrow=classic;html=1;rounded=0;exitX=0.5;exitY=1;exitDx=0;exitDy=0;entryX=0;entryY=0.75;entryDx=0;entryDy=0;edgeStyle=orthogonalEdgeStyle;" edge="1" parent="1" source="8Kzg3xWZDTRwA0DRGUe8-15" target="8Kzg3xWZDTRwA0DRGUe8-32">
          <mxGeometry width="50" height="50" relative="1" as="geometry">
            <mxPoint x="570" y="620" as="sourcePoint" />
            <mxPoint x="545" y="610" as="targetPoint" />
          </mxGeometry>
        </mxCell>
        <mxCell id="8Kzg3xWZDTRwA0DRGUe8-23" value="&lt;font style=&quot;font-size: 19px;&quot;&gt;[ not dangerous]&lt;/font&gt;" style="text;html=1;align=center;verticalAlign=middle;whiteSpace=wrap;rounded=0;" vertex="1" parent="1">
          <mxGeometry x="470" y="560" width="60" height="30" as="geometry" />
        </mxCell>
        <mxCell id="8Kzg3xWZDTRwA0DRGUe8-26" value="&lt;span style=&quot;font-size: 20px;&quot;&gt;Transfer to&amp;nbsp;&lt;/span&gt;&lt;div&gt;&lt;span style=&quot;font-size: 20px;&quot;&gt;police station&lt;/span&gt;&lt;/div&gt;" style="rounded=1;whiteSpace=wrap;html=1;" vertex="1" parent="1">
          <mxGeometry x="690" y="180" width="120" height="60" as="geometry" />
        </mxCell>
        <mxCell id="8Kzg3xWZDTRwA0DRGUe8-27" value="&lt;font style=&quot;font-size: 20px;&quot;&gt;Find secure&lt;/font&gt;&lt;div style=&quot;font-size: 20px;&quot;&gt;&lt;font style=&quot;font-size: 20px;&quot;&gt;place&lt;/font&gt;&lt;/div&gt;" style="rounded=1;whiteSpace=wrap;html=1;" vertex="1" parent="1">
          <mxGeometry x="690" y="290" width="120" height="60" as="geometry" />
        </mxCell>
        <mxCell id="8Kzg3xWZDTRwA0DRGUe8-28" value="" style="endArrow=classic;html=1;rounded=0;entryX=0;entryY=0.5;entryDx=0;entryDy=0;exitX=1;exitY=0.25;exitDx=0;exitDy=0;" edge="1" parent="1" source="8Kzg3xWZDTRwA0DRGUe8-19" target="8Kzg3xWZDTRwA0DRGUe8-26">
          <mxGeometry width="50" height="50" relative="1" as="geometry">
            <mxPoint x="605" y="270" as="sourcePoint" />
            <mxPoint x="655" y="220" as="targetPoint" />
          </mxGeometry>
        </mxCell>
        <mxCell id="8Kzg3xWZDTRwA0DRGUe8-29" value="" style="endArrow=classic;html=1;rounded=0;exitX=1;exitY=0.75;exitDx=0;exitDy=0;entryX=0;entryY=0.5;entryDx=0;entryDy=0;" edge="1" parent="1" source="8Kzg3xWZDTRwA0DRGUe8-19" target="8Kzg3xWZDTRwA0DRGUe8-27">
          <mxGeometry width="50" height="50" relative="1" as="geometry">
            <mxPoint x="630" y="380" as="sourcePoint" />
            <mxPoint x="680" y="330" as="targetPoint" />
          </mxGeometry>
        </mxCell>
        <mxCell id="8Kzg3xWZDTRwA0DRGUe8-30" value="&lt;font style=&quot;font-size: 20px;&quot;&gt;[not available]&lt;/font&gt;" style="text;html=1;align=center;verticalAlign=middle;whiteSpace=wrap;rounded=0;" vertex="1" parent="1">
          <mxGeometry x="520" y="190" width="150" height="30" as="geometry" />
        </mxCell>
        <mxCell id="8Kzg3xWZDTRwA0DRGUe8-31" value="&lt;font style=&quot;font-size: 20px;&quot;&gt;[available]&lt;/font&gt;" style="text;html=1;align=center;verticalAlign=middle;whiteSpace=wrap;rounded=0;" vertex="1" parent="1">
          <mxGeometry x="560" y="310" width="150" height="30" as="geometry" />
        </mxCell>
        <mxCell id="8Kzg3xWZDTRwA0DRGUe8-32" value="&lt;span style=&quot;font-size: 20px;&quot;&gt;Admit to&amp;nbsp;&lt;/span&gt;&lt;div&gt;&lt;span style=&quot;font-size: 20px;&quot;&gt;hospital&lt;/span&gt;&lt;/div&gt;" style="rounded=1;whiteSpace=wrap;html=1;" vertex="1" parent="1">
          <mxGeometry x="610" y="570" width="120" height="60" as="geometry" />
        </mxCell>
        <mxCell id="8Kzg3xWZDTRwA0DRGUe8-33" value="&lt;font style=&quot;font-size: 20px;&quot;&gt;«System»&lt;br&gt;&lt;b&gt;Admissions&lt;/b&gt;&lt;/font&gt;&lt;div&gt;&lt;font style=&quot;font-size: 20px;&quot;&gt;&lt;b&gt;system&lt;/b&gt;&lt;/font&gt;&lt;/div&gt;" style="html=1;whiteSpace=wrap;" vertex="1" parent="1">
          <mxGeometry x="595" y="700" width="150" height="80" as="geometry" />
        </mxCell>
        <mxCell id="8Kzg3xWZDTRwA0DRGUe8-34" value="" style="endArrow=classic;html=1;rounded=0;entryX=0.5;entryY=1;entryDx=0;entryDy=0;" edge="1" parent="1" target="8Kzg3xWZDTRwA0DRGUe8-32">
          <mxGeometry width="50" height="50" relative="1" as="geometry">
            <mxPoint x="670" y="700" as="sourcePoint" />
            <mxPoint x="720" y="650" as="targetPoint" />
          </mxGeometry>
        </mxCell>
        <mxCell id="8Kzg3xWZDTRwA0DRGUe8-35" value="" style="html=1;points=[];perimeter=orthogonalPerimeter;fillColor=strokeColor;rotation=0;" vertex="1" parent="1">
          <mxGeometry x="960" y="220" width="5" height="470" as="geometry" />
        </mxCell>
        <mxCell id="8Kzg3xWZDTRwA0DRGUe8-37" value="" style="endArrow=classic;html=1;rounded=0;exitX=1;exitY=0.5;exitDx=0;exitDy=0;entryX=-0.682;entryY=0.179;entryDx=0;entryDy=0;entryPerimeter=0;" edge="1" parent="1" source="8Kzg3xWZDTRwA0DRGUe8-26" target="8Kzg3xWZDTRwA0DRGUe8-35">
          <mxGeometry width="50" height="50" relative="1" as="geometry">
            <mxPoint x="850" y="330" as="sourcePoint" />
            <mxPoint x="900" y="280" as="targetPoint" />
          </mxGeometry>
        </mxCell>
        <mxCell id="8Kzg3xWZDTRwA0DRGUe8-38" value="" style="endArrow=classic;html=1;rounded=0;exitX=1;exitY=0.5;exitDx=0;exitDy=0;entryX=0.494;entryY=0.366;entryDx=0;entryDy=0;entryPerimeter=0;" edge="1" parent="1" source="8Kzg3xWZDTRwA0DRGUe8-27" target="8Kzg3xWZDTRwA0DRGUe8-35">
          <mxGeometry width="50" height="50" relative="1" as="geometry">
            <mxPoint x="820" y="220" as="sourcePoint" />
            <mxPoint x="967" y="314" as="targetPoint" />
          </mxGeometry>
        </mxCell>
        <mxCell id="8Kzg3xWZDTRwA0DRGUe8-39" value="" style="endArrow=classic;html=1;rounded=0;exitX=1;exitY=0.5;exitDx=0;exitDy=0;entryX=0.024;entryY=0.627;entryDx=0;entryDy=0;entryPerimeter=0;" edge="1" parent="1" source="8Kzg3xWZDTRwA0DRGUe8-32" target="8Kzg3xWZDTRwA0DRGUe8-35">
          <mxGeometry width="50" height="50" relative="1" as="geometry">
            <mxPoint x="820" y="330" as="sourcePoint" />
            <mxPoint x="972" y="402" as="targetPoint" />
          </mxGeometry>
        </mxCell>
        <mxCell id="8Kzg3xWZDTRwA0DRGUe8-40" value="&lt;span style=&quot;font-size: 20px;&quot;&gt;Inform&lt;/span&gt;&lt;div&gt;&lt;span style=&quot;font-size: 20px;&quot;&gt;social care&lt;/span&gt;&lt;/div&gt;" style="rounded=1;whiteSpace=wrap;html=1;" vertex="1" parent="1">
          <mxGeometry x="1080" y="295" width="120" height="60" as="geometry" />
        </mxCell>
        <mxCell id="8Kzg3xWZDTRwA0DRGUe8-41" value="&lt;span style=&quot;font-size: 20px;&quot;&gt;Inform next of kin&lt;/span&gt;" style="rounded=1;whiteSpace=wrap;html=1;" vertex="1" parent="1">
          <mxGeometry x="1080" y="420" width="120" height="60" as="geometry" />
        </mxCell>
        <mxCell id="8Kzg3xWZDTRwA0DRGUe8-42" value="&lt;span style=&quot;font-size: 20px;&quot;&gt;Update register&lt;/span&gt;" style="rounded=1;whiteSpace=wrap;html=1;" vertex="1" parent="1">
          <mxGeometry x="1080" y="555" width="120" height="60" as="geometry" />
        </mxCell>
        <mxCell id="8Kzg3xWZDTRwA0DRGUe8-44" value="&lt;font style=&quot;font-size: 20px;&quot;&gt;«System»&lt;br&gt;&lt;b&gt;Mentcare&lt;/b&gt;&lt;/font&gt;" style="html=1;whiteSpace=wrap;" vertex="1" parent="1">
          <mxGeometry x="1060" y="700" width="150" height="80" as="geometry" />
        </mxCell>
        <mxCell id="8Kzg3xWZDTRwA0DRGUe8-45" value="" style="endArrow=classic;html=1;rounded=0;entryX=-0.036;entryY=0.607;entryDx=0;entryDy=0;entryPerimeter=0;" edge="1" parent="1" target="8Kzg3xWZDTRwA0DRGUe8-42">
          <mxGeometry width="50" height="50" relative="1" as="geometry">
            <mxPoint x="960" y="590" as="sourcePoint" />
            <mxPoint x="1010" y="540" as="targetPoint" />
          </mxGeometry>
        </mxCell>
        <mxCell id="8Kzg3xWZDTRwA0DRGUe8-46" value="" style="endArrow=classic;html=1;rounded=0;entryX=-0.036;entryY=0.607;entryDx=0;entryDy=0;entryPerimeter=0;" edge="1" parent="1">
          <mxGeometry width="50" height="50" relative="1" as="geometry">
            <mxPoint x="965" y="449.5" as="sourcePoint" />
            <mxPoint x="1081" y="450.5" as="targetPoint" />
          </mxGeometry>
        </mxCell>
        <mxCell id="8Kzg3xWZDTRwA0DRGUe8-47" value="" style="endArrow=classic;html=1;rounded=0;entryX=-0.036;entryY=0.607;entryDx=0;entryDy=0;entryPerimeter=0;" edge="1" parent="1">
          <mxGeometry width="50" height="50" relative="1" as="geometry">
            <mxPoint x="965" y="319.5" as="sourcePoint" />
            <mxPoint x="1081" y="320.5" as="targetPoint" />
          </mxGeometry>
        </mxCell>
        <mxCell id="8Kzg3xWZDTRwA0DRGUe8-48" value="" style="html=1;points=[];perimeter=orthogonalPerimeter;fillColor=strokeColor;rotation=0;" vertex="1" parent="1">
          <mxGeometry x="1320" y="211.5" width="5" height="470" as="geometry" />
        </mxCell>
        <mxCell id="8Kzg3xWZDTRwA0DRGUe8-49" value="" style="endArrow=classic;html=1;rounded=0;entryX=-0.036;entryY=0.607;entryDx=0;entryDy=0;entryPerimeter=0;" edge="1" parent="1">
          <mxGeometry width="50" height="50" relative="1" as="geometry">
            <mxPoint x="1200" y="324.17" as="sourcePoint" />
            <mxPoint x="1316" y="325.17" as="targetPoint" />
          </mxGeometry>
        </mxCell>
        <mxCell id="8Kzg3xWZDTRwA0DRGUe8-50" value="" style="endArrow=classic;html=1;rounded=0;entryX=-0.036;entryY=0.607;entryDx=0;entryDy=0;entryPerimeter=0;" edge="1" parent="1">
          <mxGeometry width="50" height="50" relative="1" as="geometry">
            <mxPoint x="1200" y="445.67" as="sourcePoint" />
            <mxPoint x="1316" y="446.67" as="targetPoint" />
          </mxGeometry>
        </mxCell>
        <mxCell id="8Kzg3xWZDTRwA0DRGUe8-51" value="" style="endArrow=classic;html=1;rounded=0;entryX=-0.036;entryY=0.607;entryDx=0;entryDy=0;entryPerimeter=0;" edge="1" parent="1">
          <mxGeometry width="50" height="50" relative="1" as="geometry">
            <mxPoint x="1200" y="590" as="sourcePoint" />
            <mxPoint x="1316" y="591" as="targetPoint" />
          </mxGeometry>
        </mxCell>
        <mxCell id="8Kzg3xWZDTRwA0DRGUe8-52" value="" style="ellipse;html=1;shape=endState;fillColor=strokeColor;" vertex="1" parent="1">
          <mxGeometry x="1430" y="432" width="30" height="30" as="geometry" />
        </mxCell>
        <mxCell id="8Kzg3xWZDTRwA0DRGUe8-53" value="" style="endArrow=classic;html=1;rounded=0;entryX=-0.036;entryY=0.607;entryDx=0;entryDy=0;entryPerimeter=0;" edge="1" parent="1">
          <mxGeometry width="50" height="50" relative="1" as="geometry">
            <mxPoint x="1320" y="445.67" as="sourcePoint" />
            <mxPoint x="1436" y="446.67" as="targetPoint" />
          </mxGeometry>
        </mxCell>
      </root>
    </mxGraphModel>
  </diagram>
</mxfile>
